<?xml version="1.0" standalone="no"?><!DOCTYPE svg PUBLIC "-//W3C//DTD SVG 1.1//EN" "http://www.w3.org/Graphics/SVG/1.1/DTD/svg11.dtd"><svg t="1752905497500" class="icon" viewBox="0 0 1027 1024" version="1.1" xmlns="http://www.w3.org/2000/svg" p-id="5030" xmlns:xlink="http://www.w3.org/1999/xlink" width="200.5859375" height="200"><path d="M511.25289 649.295768c-6.436637 0-12.988214-1.724099-18.735211-5.172297L19.769671 363.555057c-11.034235-6.551577-17.815692-18.390392-18.045572-31.263666-0.11494-12.873274 6.436637-24.827029 17.355932-31.608486L492.172859 5.632057c11.838815-7.356157 26.895948-7.471097 38.734763-0.114939l478.954764 295.395667c11.034235 6.781457 17.585812 18.850152 17.470873 31.723426-0.11494 12.873274-7.011337 24.827029-18.160512 31.263666L529.873162 644.238411c-5.746997 3.333259-12.183635 5.057358-18.620272 5.057357zM109.192951 331.141991l402.174879 238.615333 407.691997-238.500393L511.71265 80.113144 109.192951 331.141991z" p-id="5031"></path><path d="M511.48277 853.314177c-6.551577 0-13.103154-1.724099-18.965091-5.287238l-474.701987-285.740712c-17.355932-10.459535-22.98799-33.102705-12.528454-50.458637 10.459535-17.355932 33.102705-22.98799 50.458637-12.528454l455.851835 274.361656L968.943765 500.678415c17.470872-10.459535 39.999102-4.712538 50.458637 12.758334 10.459535 17.470872 4.712538 39.999102-12.758334 50.458638L530.332922 848.141879c-5.861937 3.448198-12.298574 5.172298-18.850152 5.172298z" p-id="5032"></path><path d="M511.48277 1024c-6.321697 0-12.643394-1.609159-18.390392-4.942418L19.539791 746.305085c-17.585812-10.114715-23.677629-32.642945-13.562914-50.228758 10.114715-17.585812 32.642945-23.677629 50.228758-13.562914L511.59771 944.806376l459.070154-262.063083c17.585812-10.114715 40.114042-3.907958 50.228757 13.677854 10.114715 17.585812 3.907958 40.114042-13.677853 50.228758L529.758222 1019.172522c-5.746997 3.218319-11.953755 4.827478-18.275452 4.827478z" p-id="5033"></path></svg>